<?xml version="1.0" encoding="UTF-8" standalone="no"?>
<!DOCTYPE svg PUBLIC "-//W3C//DTD SVG 1.1//EN" "http://www.w3.org/Graphics/SVG/1.1/DTD/svg11.dtd">
<svg width="100%" height="100%" viewBox="0 0 453 305" version="1.1" xmlns="http://www.w3.org/2000/svg" xmlns:xlink="http://www.w3.org/1999/xlink" xml:space="preserve" xmlns:serif="http://www.serif.com/" style="fill-rule:evenodd;clip-rule:evenodd;stroke-linejoin:round;stroke-miterlimit:2;">
    <g id="Artboard1" transform="matrix(1,0,0,1,-312,-366)">
        <rect x="312" y="366" width="453" height="305" style="fill:none;"/>
        <g id="Color">
            <g transform="matrix(-0.311952,-0.0853443,0.0853443,-0.311952,653.19,640.506)">
                <g id="Icon">
                    <path d="M560.383,654.648C559.717,658.881 557.324,662.649 553.774,665.051C550.225,667.453 545.838,668.273 541.66,667.317C481.808,653.065 431.721,613.606 403.295,560.765C401.301,556.985 400.966,552.546 402.372,548.509C403.778,544.473 406.798,541.202 410.709,539.479C443.579,524.939 523.607,489.686 565.097,471.41C570.272,469.131 576.278,469.858 580.759,473.307C585.24,476.755 587.481,482.375 586.602,487.961C579.556,532.755 565.964,619.166 560.383,654.648Z" style="fill:rgb(255,255,255);"/>
                </g>
            </g>
            <g transform="matrix(1,0,0,1,204.035,-154.193)">
                <g transform="matrix(1,0,0,1,-567.42,-38.343)">
                    <path d="M792.004,789.861C778.346,789.861 766.395,786.862 756.151,780.863C745.907,774.865 737.872,765.767 732.047,753.571C726.423,741.174 723.611,725.578 723.611,706.783C723.611,687.788 726.323,672.193 731.746,659.996C737.169,647.799 745.003,638.702 755.247,632.703C765.491,626.705 777.743,623.706 792.004,623.706C807.27,623.706 820.928,627.205 832.98,634.203C845.232,641.001 854.874,650.598 861.904,662.995C869.135,675.392 872.75,689.988 872.75,706.783C872.75,723.779 869.135,738.475 861.904,750.871C854.874,763.268 845.232,772.866 832.98,779.664C820.928,786.462 807.27,789.861 792.004,789.861ZM718.441,845.646C712.541,845.646 706.882,843.302 702.71,839.13C698.538,834.958 696.194,829.299 696.194,823.399C696.194,781.302 696.194,690.449 696.194,648.352C696.194,636.065 706.154,626.105 718.441,626.105L718.839,626.105C731.126,626.105 741.086,636.065 741.086,648.352C741.086,654.293 741.086,659.096 741.086,659.096L740.182,707.083L743.195,754.77L743.195,823.399C743.195,829.299 740.851,834.958 736.679,839.13C732.507,843.302 726.848,845.646 720.948,845.646C720.113,845.646 719.276,845.646 718.441,845.646ZM783.87,751.471C791.703,751.471 798.633,749.672 804.659,746.073C810.885,742.474 815.806,737.375 819.422,730.777C823.238,723.979 825.146,715.981 825.146,706.783C825.146,697.386 823.238,689.388 819.422,682.79C815.806,676.192 810.885,671.093 804.659,667.494C798.633,663.895 791.703,662.095 783.87,662.095C776.036,662.095 769.006,663.895 762.779,667.494C756.552,671.093 751.631,676.192 748.016,682.79C744.4,689.388 742.593,697.386 742.593,706.783C742.593,715.981 744.4,723.979 748.016,730.777C751.631,737.375 756.552,742.474 762.779,746.073C769.006,749.672 776.036,751.471 783.87,751.471Z" style="fill:rgb(255,255,255);fill-rule:nonzero;"/>
                </g>
                <path d="M351.175,603.134C354.033,602.73 356.926,603.58 359.111,605.466C361.296,607.352 362.56,610.09 362.577,612.976C362.575,613.073 362.575,613.168 362.575,613.262L362.575,725.619C362.575,738.597 352.053,749.119 339.075,749.119C326.096,749.119 315.574,738.597 315.574,725.619C315.574,725.619 315.479,641.993 315.53,615.868C315.993,611.293 319.518,607.623 324.072,606.979C331.795,605.878 343.175,604.267 351.175,603.134Z" style="fill:rgb(255,255,255);"/>
                <g transform="matrix(0.994522,-0.104528,0.104528,0.994522,-67.8203,54.2279)">
                    <path d="M422.962,681.637C422.338,681.637 421.749,681.927 421.371,682.424C420.992,682.92 420.867,683.564 421.032,684.166C421.976,687.511 423.278,690.667 424.943,693.634C428.96,700.232 434.484,705.33 441.514,708.929C448.745,712.329 457.181,714.028 466.822,714.028C475.459,714.028 482.991,712.728 489.419,710.129C492.268,709.012 495.006,707.654 497.633,706.057C503.948,702.243 512.074,703.389 517.088,708.801C517.096,708.794 517.096,708.794 517.096,708.794C521.554,713.606 523.514,720.221 522.396,726.684C521.278,733.148 517.211,738.72 511.396,741.755C509.171,742.883 506.87,743.944 504.484,744.92C493.235,749.319 480.28,751.518 465.617,751.518C447.138,751.518 430.868,747.919 416.808,740.721C402.948,733.523 392.202,723.726 384.57,711.329C376.937,698.732 373.121,684.436 373.121,668.44C373.121,652.245 376.837,637.949 384.268,625.552C391.901,612.955 402.245,603.158 415.301,596.16C428.357,588.962 443.121,585.363 459.591,585.363C475.459,585.363 489.72,588.762 502.375,595.56C515.23,602.158 525.373,611.756 532.805,624.352C540.237,636.749 543.953,651.645 543.953,669.04C543.953,669.04 543.953,669.041 543.953,669.041C543.953,675.998 538.313,681.637 531.357,681.637C503.961,681.637 436.885,681.637 422.962,681.637ZM420.301,651.944C420.181,652.531 420.331,653.141 420.71,653.606C421.089,654.07 421.656,654.339 422.255,654.339C434.014,654.344 485.585,654.344 497.309,654.344C497.908,654.344 498.475,654.076 498.855,653.614C499.235,653.151 499.388,652.543 499.272,651.956C498.424,647.811 497.05,644.008 495.144,640.548C491.729,634.35 487.009,629.551 480.983,626.152C474.957,622.553 467.927,620.753 459.893,620.753C451.858,620.753 444.728,622.553 438.501,626.152C432.475,629.551 427.755,634.449 424.34,640.848C422.495,644.196 421.149,647.895 420.301,651.944Z" style="fill:rgb(255,255,255);"/>
                </g>
            </g>
        </g>
    </g>
</svg>
